<?xml version="1.0" standalone="no"?>
<!DOCTYPE svg PUBLIC "-//W3C//DTD SVG 1.1//EN" "http://www.w3.org/Graphics/SVG/1.1/DTD/svg11.dtd">
<!--Generator: Xara Designer (www.xara.com), SVG filter version: 6.5.0.22-->
<svg fill="none" fill-rule="evenodd" stroke="black" stroke-width="0.501" stroke-linejoin="bevel" stroke-miterlimit="10" font-family="Times New Roman" font-size="16" style="font-variant-ligatures:none" xmlns:xlink="http://www.w3.org/1999/xlink" xmlns="http://www.w3.org/2000/svg" version="1.1" overflow="visible" width="208.81pt" height="208.244pt" viewBox="-259.634 -355.128 208.81 208.244">
 <defs>
	</defs>
 <g id="Page background" transform="scale(1 -1)"/>
 <g id="Layer 1" transform="scale(1 -1)">
  <g id="Group" stroke="none">
   <g id="Group_1">
    <ellipse rx="104.329" ry="104.175" transform="translate(-155.229 251.006) rotate(153.914) skewX(0.13138)" fill="#000000" stroke-width="0.75" stroke-linejoin="round" stroke-linecap="round"/>
    <path d="M -197.223,166.686 L -197.218,166.702 L -184.777,183.187 C -170.618,177.025 -154.975,175.533 -140.133,178.607 L -131.32,160.024 L -131.275,159.922 C -153.104,154.218 -176.629,156.441 -197.223,166.686 Z M -99.774,174.835 L -99.811,174.936 L -108.641,193.521 C -105.772,195.858 -103.04,198.425 -100.476,201.241 C -93.288,209.142 -88.125,218.181 -84.969,227.726 L -64.427,225.828 L -64.427,225.822 C -68.467,211.203 -76.096,197.356 -87.359,185.669 C -91.241,181.638 -95.405,178.034 -99.774,174.835 Z M -249.084,242.892 L -228.506,240.989 L -228.529,240.989 C -226.716,227.669 -221.283,214.774 -212.302,203.921 L -224.682,187.522 L -224.743,187.438 C -239.218,203.229 -247.355,222.832 -249.084,242.892 Z M -61.355,259.116 L -61.456,259.127 L -81.923,261.019 C -83.721,274.337 -89.151,287.239 -98.138,298.087 L -98.184,298.006 L -85.697,314.57 C -71.222,298.784 -63.081,279.193 -61.355,259.116 Z M -225.414,274.287 L -246.019,276.191 C -241.984,290.805 -234.346,304.657 -223.086,316.344 C -219.202,320.375 -215.036,323.974 -210.661,327.162 L -201.754,308.404 L -201.8,308.499 C -204.672,306.162 -207.405,303.588 -209.967,300.778 C -217.164,292.866 -222.326,283.827 -225.475,274.287 L -225.414,274.287 Z M -125.663,318.821 C -139.823,324.988 -155.465,326.48 -170.301,323.406 L -170.266,323.343 L -179.163,342.091 C -157.33,347.8 -133.811,345.572 -113.211,335.333 L -125.703,318.77 L -125.663,318.821 Z" fill="#ffffff" stroke-width="0.429" stroke-linejoin="miter" marker-start="none" marker-end="none"/>
    <ellipse rx="55.499" ry="55.5" transform="translate(-155.229 251.006) rotate(134.034)" fill="#ffffff" stroke-width="0.897" stroke-linejoin="round" stroke-linecap="round"/>
   </g>
  </g>
 </g>
</svg>
